<svg width="41" height="30" viewBox="0 0 41 30" fill="none" xmlns="http://www.w3.org/2000/svg">
<path d="M5.35758 15.2988C6.7184 13.5201 8.87215 12.7272 11.3366 12.7272C15.8906 12.7272 19.1801 15.8024 19.1801 20.9886C19.1801 25.8639 16.1049 30 9.64364 30C3.70744 30 0 25.7568 0 18.867C0 9.65192 5.53973 2.41919 15.5584 0.0297116C16.1477 -0.109585 16.8014 0.25473 17.005 0.833348L17.2085 1.41197C17.4121 1.99058 17.1014 2.55849 16.5121 2.72993C9.9008 4.58365 5.89333 8.61255 4.89683 15.1381C4.8111 15.7381 4.98255 15.7917 5.35758 15.2988ZM26.5522 15.2988C27.913 13.5201 30.0667 12.7272 32.5312 12.7272C37.0852 12.7272 40.3747 15.8024 40.3747 20.9886C40.3747 25.8639 37.2994 30 30.8382 30C24.902 30 21.1946 25.7568 21.1946 18.867C21.1946 9.65192 26.7343 2.41919 36.7637 0.0297116C37.353 -0.109585 38.0067 0.25473 38.2102 0.833348L38.4138 1.41197C38.6174 1.99058 38.3067 2.55849 37.7173 2.72993C31.1061 4.58365 27.0986 8.61255 26.1021 15.1381C26.0057 15.7381 26.1878 15.7917 26.5522 15.2988Z" fill="#7A3BFF"/>
</svg>
