<svg width="61" height="60" viewBox="0 0 61 60" fill="none" xmlns="http://www.w3.org/2000/svg">
<g clip-path="url(#clip0)">
<path d="M31.9372 0C16.6436 0 17.5831 6.64178 17.5831 6.64178V13.5184H32.2103V15.5831H11.7988C11.7988 15.5831 2 14.4743 2 29.9208C2 45.3673 10.5535 44.8211 10.5535 44.8211H15.655V37.655C15.655 37.655 15.3819 29.1015 24.0719 29.1015H38.5626C38.5626 29.1015 46.701 29.2326 46.701 21.2362V8.00728C46.701 8.00728 47.9408 0 31.9372 0ZM23.8807 4.62631C24.4004 4.62631 24.9083 4.78039 25.3403 5.06908C25.7724 5.35776 26.1091 5.76807 26.308 6.24813C26.5068 6.7282 26.5589 7.25644 26.4575 7.76607C26.3561 8.2757 26.1059 8.74383 25.7385 9.11125C25.371 9.47867 24.9029 9.72889 24.3933 9.83027C23.8837 9.93164 23.3554 9.87961 22.8754 9.68076C22.3953 9.48191 21.985 9.14518 21.6963 8.71313C21.4076 8.28109 21.2535 7.77314 21.2535 7.25353C21.2535 6.90852 21.3215 6.56688 21.4535 6.24813C21.5855 5.92939 21.7791 5.63976 22.023 5.3958C22.5157 4.9031 23.184 4.62631 23.8807 4.62631Z" fill="white"/>
<path d="M32.3745 60C47.668 60 46.7286 53.3582 46.7286 53.3582V46.4815H32.1014V44.4114H52.5128C52.5128 44.4114 62.3116 45.5038 62.3116 30.0737C62.3116 14.6436 53.7582 15.1734 53.7582 15.1734H48.6567V22.345C48.6567 22.345 48.9298 30.893 40.2343 30.893H25.7491C25.7491 30.893 17.6107 30.7619 17.6107 38.7801V51.9927C17.6107 51.9927 16.3708 60 32.3745 60ZM40.4309 55.3737C39.91 55.3747 39.4004 55.2213 38.9668 54.9326C38.5331 54.644 38.1948 54.2332 37.9947 53.7523C37.7946 53.2713 37.7417 52.7418 37.8427 52.2307C37.9436 51.7197 38.194 51.2501 38.5619 50.8813C38.9299 50.5126 39.399 50.2613 39.9098 50.1593C40.4207 50.0573 40.9503 50.1091 41.4317 50.3082C41.913 50.5073 42.3245 50.8447 42.6141 51.2778C42.9036 51.7108 43.0581 52.22 43.0581 52.741C43.0588 53.0864 42.9914 53.4287 42.8597 53.748C42.728 54.0674 42.5346 54.3577 42.2906 54.6022C42.0465 54.8468 41.7567 55.0408 41.4376 55.1732C41.1185 55.3055 40.7764 55.3737 40.4309 55.3737Z" fill="white"/>
</g>
<defs>
<clipPath id="clip0">
<rect width="60.3113" height="60" fill="white"/>
</clipPath>
</defs>
</svg>
