<svg width="60" height="60" viewBox="0 0 60 60" fill="none" xmlns="http://www.w3.org/2000/svg">
<path d="M59.0625 52.6876H52.0312V42.6564C52.0312 38.4376 48.5625 34.9689 44.3438 34.9689C40.125 34.9689 36.6562 38.4376 36.6562 42.6564V52.6876H0.9375C0.375 52.6876 0 53.1564 0 53.6251V59.0626C0 59.5314 0.375 60.0001 0.9375 60.0001H59.0625C59.5312 60.0001 60 59.5314 60 59.0626V53.6251C60 53.0626 59.5312 52.6876 59.0625 52.6876ZM44.4375 45.8439C42.6562 45.8439 41.25 44.4376 41.25 42.6564C41.25 40.8751 42.6562 39.4689 44.4375 39.4689C46.2188 39.4689 47.625 40.8751 47.625 42.6564C47.5312 44.3439 46.125 45.8439 44.4375 45.8439Z" fill="#FFD363"/>
<path d="M13.3121 45.6562H34.8746V42.6562C34.8746 41.1562 35.2496 39.6562 35.9059 38.3438H13.3121C12.7496 38.3438 12.3746 38.8125 12.3746 39.2812V44.7187C12.3746 45.2812 12.7496 45.6562 13.3121 45.6562Z" fill="#FFD363"/>
<path d="M24.0927 30.0937H25.1239V32.7188C25.1239 33.2812 25.5927 33.6562 26.0614 33.6562H33.8426C34.3114 33.6562 34.7801 33.2812 34.7801 32.7188V30.0937H35.8114C36.3739 30.0937 36.7489 29.625 36.7489 29.1562V20.8125C36.4677 20.8125 36.0927 20.9062 35.8114 20.9062C32.0614 20.9062 29.0614 17.9062 29.0614 14.1562C29.0614 10.4062 32.0614 7.40625 35.8114 7.40625C36.0927 7.40625 36.4677 7.40625 36.7489 7.5V4.21875C36.7489 3.75 36.3739 3.28125 35.8114 3.28125H34.0302V0.9375C34.0302 0.375 33.6552 0 33.0927 0H26.7177C26.1552 0 25.7802 0.375 25.7802 0.9375V3.28125H23.9989C23.4364 3.28125 23.0614 3.75 23.0614 4.21875V29.1562C23.1552 29.7187 23.6239 30.0937 24.0927 30.0937Z" fill="#FFD363"/>
<path d="M39.375 19.875C43.125 22.5938 45.2812 26.8125 45.2812 31.5C45.2812 32.0625 45.2813 32.5312 45.1875 33.0937C47.9062 33.375 50.3438 34.7812 51.9375 36.8437C52.4063 35.1562 52.5937 33.375 52.5937 31.5C52.5937 24 48.6562 17.0625 42.4687 13.0312C42.5625 13.4062 42.5625 13.6875 42.5625 14.0625C42.5625 16.5938 41.3437 18.75 39.375 19.875Z" fill="#FFD363"/>
<path d="M31.0302 14.1563C31.0302 16.875 33.1864 19.0312 35.9052 19.0312C38.6239 19.0312 40.7802 16.875 40.7802 14.1563C40.7802 11.4375 38.6239 9.28125 35.9052 9.28125C33.1864 9.28125 31.0302 11.5313 31.0302 14.1563ZM36.8427 15.0938H34.9677V13.2188H36.8427V15.0938Z" fill="#FFD363"/>
</svg>
